<svg width="400" height="311" viewBox="0 0 400 311" fill="none" xmlns="http://www.w3.org/2000/svg">
<path d="M265.712 93.672C263.536 93.672 261.68 92.936 260.144 91.464C258.608 89.928 257.84 88.008 257.84 85.704C257.84 83.272 258.608 81.352 260.144 79.944C261.68 78.472 263.536 77.736 265.712 77.736C267.888 77.736 269.744 78.472 271.28 79.944C272.816 81.352 273.584 83.272 273.584 85.704C273.584 88.008 272.816 89.928 271.28 91.464C269.744 92.936 267.888 93.672 265.712 93.672Z" fill="#011ABF"/>
<path d="M36.288 186.672C31.936 186.672 28.064 185.712 24.672 183.792C21.28 181.872 18.592 178.992 16.608 175.152C14.688 171.248 13.728 166.32 13.728 160.368C13.728 154.352 14.72 149.424 16.704 145.584C18.752 141.744 21.472 138.896 24.864 137.04C28.32 135.12 32.128 134.16 36.288 134.16C41.344 134.16 45.792 135.248 49.632 137.424C53.536 139.6 56.608 142.64 58.848 146.544C61.152 150.448 62.304 155.056 62.304 160.368C62.304 165.68 61.152 170.288 58.848 174.192C56.608 178.096 53.536 181.168 49.632 183.408C45.792 185.584 41.344 186.672 36.288 186.672ZM7.872 186V114.768H19.872V146.64L18.912 160.272L19.296 173.904V186H7.872ZM34.944 176.4C37.824 176.4 40.384 175.76 42.624 174.48C44.928 173.2 46.752 171.344 48.096 168.912C49.44 166.48 50.112 163.632 50.112 160.368C50.112 157.04 49.44 154.192 48.096 151.824C46.752 149.392 44.928 147.536 42.624 146.256C40.384 144.976 37.824 144.336 34.944 144.336C32.064 144.336 29.472 144.976 27.168 146.256C24.864 147.536 23.04 149.392 21.696 151.824C20.352 154.192 19.68 157.04 19.68 160.368C19.68 163.632 20.352 166.48 21.696 168.912C23.04 171.344 24.864 173.2 27.168 174.48C29.472 175.76 32.064 176.4 34.944 176.4ZM73.6845 186V134.736H85.1085V148.848L83.7645 144.72C85.3005 141.264 87.7005 138.64 90.9645 136.848C94.2925 135.056 98.4205 134.16 103.349 134.16V145.584C102.837 145.456 102.357 145.392 101.909 145.392C101.461 145.328 101.013 145.296 100.565 145.296C96.0205 145.296 92.4045 146.64 89.7165 149.328C87.0285 151.952 85.6845 155.888 85.6845 161.136V186H73.6845ZM141.456 186V175.632L140.784 173.424V155.28C140.784 151.76 139.728 149.04 137.616 147.12C135.504 145.136 132.304 144.144 128.016 144.144C125.136 144.144 122.288 144.592 119.472 145.488C116.72 146.384 114.384 147.632 112.464 149.232L107.76 140.496C110.512 138.384 113.776 136.816 117.552 135.792C121.392 134.704 125.36 134.16 129.456 134.16C136.88 134.16 142.608 135.952 146.64 139.536C150.736 143.056 152.784 148.528 152.784 155.952V186H141.456ZM125.328 186.672C121.488 186.672 118.128 186.032 115.248 184.752C112.368 183.408 110.128 181.584 108.528 179.28C106.992 176.912 106.224 174.256 106.224 171.312C106.224 168.432 106.896 165.84 108.24 163.536C109.648 161.232 111.92 159.408 115.056 158.064C118.192 156.72 122.352 156.048 127.536 156.048H142.416V164.016H128.4C124.304 164.016 121.552 164.688 120.144 166.032C118.736 167.312 118.032 168.912 118.032 170.832C118.032 173.008 118.896 174.736 120.624 176.016C122.352 177.296 124.752 177.936 127.824 177.936C130.768 177.936 133.392 177.264 135.696 175.92C138.064 174.576 139.76 172.592 140.784 169.968L142.8 177.168C141.648 180.176 139.568 182.512 136.56 184.176C133.616 185.84 129.872 186.672 125.328 186.672ZM197.273 134.16C201.369 134.16 205.017 134.96 208.217 136.56C211.481 138.16 214.041 140.624 215.897 143.952C217.753 147.216 218.681 151.44 218.681 156.624V186H206.681V158.16C206.681 153.616 205.593 150.224 203.417 147.984C201.305 145.744 198.329 144.624 194.489 144.624C191.673 144.624 189.177 145.2 187.001 146.352C184.825 147.504 183.129 149.232 181.913 151.536C180.761 153.776 180.185 156.624 180.185 160.08V186H168.185V114.768H180.185V148.56L177.593 144.336C179.385 141.072 181.977 138.576 185.369 136.848C188.825 135.056 192.793 134.16 197.273 134.16ZM334.232 134.16C338.328 134.16 341.944 134.96 345.08 136.56C348.28 138.16 350.776 140.624 352.568 143.952C354.36 147.216 355.256 151.44 355.256 156.624V186H343.256V158.16C343.256 153.616 342.264 150.224 340.28 147.984C338.296 145.744 335.448 144.624 331.736 144.624C329.112 144.624 326.776 145.2 324.728 146.352C322.744 147.504 321.176 149.2 320.024 151.44C318.936 153.68 318.392 156.528 318.392 159.984V186H306.392V158.16C306.392 153.616 305.4 150.224 303.416 147.984C301.432 145.744 298.584 144.624 294.872 144.624C292.248 144.624 289.912 145.2 287.864 146.352C285.88 147.504 284.312 149.2 283.16 151.44C282.072 153.68 281.528 156.528 281.528 159.984V186H269.528V134.736H280.952V148.368L278.936 144.336C280.664 141.008 283.16 138.48 286.424 136.752C289.752 135.024 293.528 134.16 297.752 134.16C302.552 134.16 306.712 135.344 310.232 137.712C313.816 140.08 316.184 143.664 317.336 148.464L312.632 146.832C314.296 142.992 317.048 139.92 320.888 137.616C324.728 135.312 329.176 134.16 334.232 134.16Z" fill="black"/>
<path d="M223.151 195.6L254.831 105.168H265.583L233.903 195.6H223.151ZM367.999 164.304V154.32H394.399V164.304H367.999Z" fill="#011ABF"/>
<path d="M37.288 287.672C32.936 287.672 29.064 286.712 25.672 284.792C22.28 282.872 19.592 279.992 17.608 276.152C15.688 272.248 14.728 267.32 14.728 261.368C14.728 255.352 15.72 250.424 17.704 246.584C19.752 242.744 22.472 239.896 25.864 238.04C29.32 236.12 33.128 235.16 37.288 235.16C42.344 235.16 46.792 236.248 50.632 238.424C54.536 240.6 57.608 243.64 59.848 247.544C62.152 251.448 63.304 256.056 63.304 261.368C63.304 266.68 62.152 271.288 59.848 275.192C57.608 279.096 54.536 282.168 50.632 284.408C46.792 286.584 42.344 287.672 37.288 287.672ZM8.872 287V215.768H20.872V247.64L19.912 261.272L20.296 274.904V287H8.872ZM35.944 277.4C38.824 277.4 41.384 276.76 43.624 275.48C45.928 274.2 47.752 272.344 49.096 269.912C50.44 267.48 51.112 264.632 51.112 261.368C51.112 258.04 50.44 255.192 49.096 252.824C47.752 250.392 45.928 248.536 43.624 247.256C41.384 245.976 38.824 245.336 35.944 245.336C33.064 245.336 30.472 245.976 28.168 247.256C25.864 248.536 24.04 250.392 22.696 252.824C21.352 255.192 20.68 258.04 20.68 261.368C20.68 264.632 21.352 267.48 22.696 269.912C24.04 272.344 25.864 274.2 28.168 275.48C30.472 276.76 33.064 277.4 35.944 277.4ZM98.7805 287.672C93.0845 287.672 88.0925 286.552 83.8045 284.312C79.5805 282.008 76.2845 278.872 73.9165 274.904C71.6125 270.936 70.4605 266.424 70.4605 261.368C70.4605 256.248 71.5805 251.736 73.8205 247.832C76.1245 243.864 79.2605 240.76 83.2285 238.52C87.2605 236.28 91.8365 235.16 96.9565 235.16C101.949 235.16 106.397 236.248 110.301 238.424C114.205 240.6 117.277 243.672 119.517 247.64C121.757 251.608 122.877 256.28 122.877 261.656C122.877 262.168 122.845 262.744 122.781 263.384C122.781 264.024 122.749 264.632 122.685 265.208H79.9645V257.24H116.349L111.645 259.736C111.709 256.792 111.101 254.2 109.821 251.96C108.541 249.72 106.781 247.96 104.541 246.68C102.365 245.4 99.8365 244.76 96.9565 244.76C94.0125 244.76 91.4205 245.4 89.1805 246.68C87.0045 247.96 85.2765 249.752 83.9965 252.056C82.7805 254.296 82.1725 256.952 82.1725 260.024V261.944C82.1725 265.016 82.8765 267.736 84.2845 270.104C85.6925 272.472 87.6765 274.296 90.2365 275.576C92.7965 276.856 95.7405 277.496 99.0685 277.496C101.949 277.496 104.541 277.048 106.845 276.152C109.149 275.256 111.197 273.848 112.989 271.928L119.421 279.32C117.117 282.008 114.205 284.088 110.685 285.56C107.229 286.968 103.261 287.672 98.7805 287.672ZM134.403 287V215.768H146.403V287H134.403ZM185.385 306.296C180.649 306.296 176.009 305.656 171.465 304.376C166.985 303.16 163.305 301.368 160.425 299L165.801 289.976C168.041 291.832 170.857 293.304 174.249 294.392C177.705 295.544 181.193 296.12 184.713 296.12C190.345 296.12 194.473 294.808 197.097 292.184C199.721 289.624 201.033 285.752 201.033 280.568V271.448L201.993 259.832L201.609 248.216V235.736H213.033V279.224C213.033 288.504 210.665 295.32 205.929 299.672C201.193 304.088 194.345 306.296 185.385 306.296ZM183.849 284.696C178.985 284.696 174.569 283.672 170.601 281.624C166.697 279.512 163.593 276.6 161.289 272.888C159.049 269.176 157.929 264.824 157.929 259.832C157.929 254.904 159.049 250.584 161.289 246.872C163.593 243.16 166.697 240.28 170.601 238.232C174.569 236.184 178.985 235.16 183.849 235.16C188.201 235.16 192.105 236.024 195.561 237.752C199.017 239.48 201.769 242.168 203.817 245.816C205.929 249.464 206.985 254.136 206.985 259.832C206.985 265.528 205.929 270.232 203.817 273.944C201.769 277.592 199.017 280.312 195.561 282.104C192.105 283.832 188.201 284.696 183.849 284.696ZM185.673 274.52C188.681 274.52 191.369 273.912 193.737 272.696C196.105 271.416 197.929 269.688 199.209 267.512C200.553 265.272 201.225 262.712 201.225 259.832C201.225 256.952 200.553 254.424 199.209 252.248C197.929 250.008 196.105 248.312 193.737 247.16C191.369 245.944 188.681 245.336 185.673 245.336C182.665 245.336 179.945 245.944 177.513 247.16C175.145 248.312 173.289 250.008 171.945 252.248C170.665 254.424 170.025 256.952 170.025 259.832C170.025 262.712 170.665 265.272 171.945 267.512C173.289 269.688 175.145 271.416 177.513 272.696C179.945 273.912 182.665 274.52 185.673 274.52ZM257.898 235.16C261.994 235.16 265.642 235.96 268.842 237.56C272.106 239.16 274.666 241.624 276.522 244.952C278.378 248.216 279.306 252.44 279.306 257.624V287H267.306V259.16C267.306 254.616 266.218 251.224 264.042 248.984C261.93 246.744 258.954 245.624 255.114 245.624C252.298 245.624 249.802 246.2 247.626 247.352C245.45 248.504 243.754 250.232 242.538 252.536C241.386 254.776 240.81 257.624 240.81 261.08V287H228.81V215.768H240.81V249.56L238.218 245.336C240.01 242.072 242.602 239.576 245.994 237.848C249.45 236.056 253.418 235.16 257.898 235.16ZM294.528 287V235.736H306.528V287H294.528ZM300.576 227.288C298.336 227.288 296.48 226.584 295.008 225.176C293.6 223.768 292.896 222.072 292.896 220.088C292.896 218.04 293.6 216.344 295.008 215C296.48 213.592 298.336 212.888 300.576 212.888C302.816 212.888 304.64 213.56 306.048 214.904C307.52 216.184 308.256 217.816 308.256 219.8C308.256 221.912 307.552 223.704 306.144 225.176C304.736 226.584 302.88 227.288 300.576 227.288ZM341.574 287.672C335.942 287.672 331.59 286.232 328.518 283.352C325.446 280.408 323.91 276.088 323.91 270.392V224.408H335.91V270.104C335.91 272.536 336.518 274.424 337.734 275.768C339.014 277.112 340.774 277.784 343.014 277.784C345.702 277.784 347.942 277.08 349.734 275.672L353.094 284.216C351.686 285.368 349.958 286.232 347.91 286.808C345.862 287.384 343.75 287.672 341.574 287.672ZM315.462 245.72V236.12H349.638V245.72H315.462ZM362.966 287V235.736H374.966V287H362.966ZM369.014 227.288C366.774 227.288 364.918 226.584 363.446 225.176C362.038 223.768 361.334 222.072 361.334 220.088C361.334 218.04 362.038 216.344 363.446 215C364.918 213.592 366.774 212.888 369.014 212.888C371.254 212.888 373.078 213.56 374.486 214.904C375.958 216.184 376.694 217.816 376.694 219.8C376.694 221.912 375.99 223.704 374.582 225.176C373.174 226.584 371.318 227.288 369.014 227.288Z" fill="black"/>
</svg>
